<svg width="16" height="17" viewBox="0 0 16 17" fill="none" xmlns="http://www.w3.org/2000/svg">
<path d="M6 13.2812C6 12.9878 6.22386 12.75 6.5 12.75H9.5C9.77614 12.75 10 12.9878 10 13.2812C10 13.5747 9.77614 13.8125 9.5 13.8125H6.5C6.22386 13.8125 6 13.5747 6 13.2812Z" fill="black"/>
<path d="M3 8.5654C3 7.18294 4.23471 6.12491 5.53019 6.2537C6.23775 6.32405 7.07092 6.375 8 6.375C8.92908 6.375 9.76225 6.32405 10.4698 6.2537C11.7653 6.12491 13 7.18294 13 8.5654V9.79543C13 10.283 12.6875 10.7047 12.2354 10.7882C11.3904 10.9444 9.8946 11.1563 8 11.1563C6.1054 11.1563 4.60964 10.9444 3.76458 10.7882C3.3125 10.7047 3 10.283 3 9.79543V8.5654ZM7.54195 7.68719C7.46308 7.67293 7.38255 7.69963 7.32532 7.75903L6.40429 8.71486C5.67721 8.66838 5.04611 8.59566 4.53396 8.52106C4.39717 8.50113 4.27107 8.6028 4.25232 8.74814C4.23356 8.89348 4.32925 9.02746 4.46604 9.04739C5.01572 9.12746 5.69797 9.20519 6.48603 9.25204C6.55606 9.25621 6.62451 9.22892 6.67468 9.17686L7.42865 8.3944L8.27598 10.2117C8.31213 10.2892 8.38155 10.3432 8.46203 10.3563C8.54251 10.3694 8.62397 10.3401 8.68036 10.2777L9.6124 9.246C10.3589 9.19867 11.0073 9.1241 11.534 9.04739C11.6707 9.02746 11.7664 8.89348 11.7477 8.74814C11.7289 8.6028 11.6028 8.50113 11.466 8.52106C10.9283 8.59939 10.2594 8.67564 9.48603 8.72162C9.42289 8.72538 9.36343 8.75442 9.31964 8.80289L8.56605 9.63706L7.72402 7.83114C7.6885 7.75497 7.62082 7.70146 7.54195 7.68719Z" fill="black"/>
<path d="M8.5 1.98286C8.7989 1.79915 9 1.45578 9 1.0625C9 0.475697 8.55229 0 8 0C7.44772 0 7 0.475697 7 1.0625C7 1.45577 7.2011 1.79915 7.5 1.98286V3.1875H5.5C3.01472 3.1875 1 5.32814 1 7.96875V8.5C0.447715 8.5 0 8.9757 0 9.5625V11.6875C0 12.2743 0.447715 12.75 1 12.75V13.8125C1 14.9861 1.89543 15.9375 3 15.9375H13C14.1046 15.9375 15 14.9861 15 13.8125V12.75C15.5523 12.75 16 12.2743 16 11.6875V9.5625C16 8.9757 15.5523 8.5 15 8.5V7.96875C15 5.32814 12.9853 3.1875 10.5 3.1875H8.5V1.98286ZM14 7.96875V13.8125C14 14.3993 13.5523 14.875 13 14.875H3C2.44772 14.875 2 14.3993 2 13.8125V7.96875C2 5.91494 3.567 4.25 5.5 4.25H10.5C12.433 4.25 14 5.91494 14 7.96875Z" fill="black"/>
</svg>
